<?xml version="1.0" encoding="utf-8"?><!DOCTYPE svg PUBLIC "-//W3C//DTD SVG 1.1//EN" "http://www.w3.org/Graphics/SVG/1.1/DTD/svg11.dtd"><svg width="2020" height="1014" viewBox="0 0 2020 1014" xmlns="http://www.w3.org/2000/svg" xmlns:xlink="http://www.w3.org/1999/xlink"><view id="background" viewBox="0 0 2020 523.5"/><svg width="2020" height="523.5" viewBox="-10 -10 2020 523.5"><path fill="#1EC6AA" d="M1644.5-21.75l100 10 60 230"/><path fill="#07AD91" d="M1124.5-21.75l-270 220 90 30"/><path fill="#46CEB4" d="M1434.5-21.75h210l-120 180"/><path fill="#5ED3BD" d="M1434.5-21.75l-90 160 180 20"/><path fill="#46CEB4" d="M1124.5-21.75h310l-90 160"/><path fill="#5ED3BD" d="M1084.5 148.25l40-170 220 160"/><path fill="#5ED3BD" d="M1034.5 268.25l160-210 160 230"/><path fill="#80DDCB" d="M1434.5 148.25l-80 140-160-230"/><path fill="#97E8DA" d="M1434.5 148.25l100 140h-180"/><path fill="#1EC6AA" d="M1124.5-21.75l-170 220 140-40"/><path fill="#5ED3BD" d="M1644.5-21.75l160 240-280-60"/><path fill="#80DDCB" d="M1634.5 88.25l-200 60 100 140"/><path fill="#46CEB4" d="M934.5 218.25l100 60 160-220"/><path fill="#97E8DA" d="M1784.5 248.25l-250 40 100-200"/><path fill="#A7EADD" d="M1044.5 188.25l300 60-100 240"/><path fill="#B6F2E7" d="M1484.5 518.25l-240-30 100-240"/><path fill="#A7EADD" d="M1584.5 258.25l-240-10 140 270"/><path fill="#B6F2E7" d="M1744.5 228.25l-260 290 100-260"/><path fill="#97E8DA" d="M1824.5 538.25l-80-310-260 290"/><path fill="#80DDCB" d="M884.5 498.25l160-310 200 300"/><path fill="#46CEB4" d="M1634.5 88.25l270 140-120 50"/><path fill="#1EC6AA" d="M884.5 498.25l-70-320 230 10"/><path fill="#07AD91" d="M624.5 508.25l190-330 70 320"/><path fill="#5ED3BD" d="M1904.5 228.25h-160l80 310"/><path fill="#1EC6AA" d="M2004.5 528.25l-100-300-80 310"/></svg><view id="background_2" viewBox="0 523.5 1173.5 490"/><svg width="1173.5" height="490" viewBox="836.5 -10 1173.5 490" y="523.5"><path fill="#B6F2E7" d="M1611.035 98.456L1819.47 394.75l-200.658-128.768"/><path fill="#5ED3BD" d="M1405.482 124.734l205.553-26.278-147.008 159.367"/><path fill="#1EC6AA" d="M1405.482 124.734l-120.153 103.64 178.697 29.45"/><path fill="#07AD91" d="M1213.965 200.477l191.517-75.743-120.153 103.64"/><path fill="#B6F2E7" d="M1015.5 380.334L1115.5 130l160 230"/><path fill="#A7EADD" d="M1611.035 98.456l19.682 218.223-166.69-58.857"/><path fill="#46CEB4" d="M1355.5 220l-80 140-160-230"/><path fill="#07AD91" d="M1585.5 199.666l-231.57 20.2 100.335 160.468"/><path fill="#1EC6AA" d="M1355.5 220l100 140h-180"/><path fill="#46CEB4" d="M1710.81 335.587l-256.545 44.747L1585.5 199.666"/><path fill="#80DDCB" d="M1015.5 280l330 10-100 240"/><path fill="#1EC6AA" d="M1485.5 560l-240-30 100-240"/><path fill="#5ED3BD" d="M1585.5 340l-240-50 140 270"/><path fill="#A7EADD" d="M885.5 498.25l130-218.25 230 250"/><path fill="#80DDCB" d="M1585.5 199.666l206.05 147.056-99.534 7.584"/><path fill="#1EC6AA" d="M1791.55 255.167L1485.5 560l100-220"/><path fill="#B6F2E7" d="M1923.544 340.267l-131.993-85.1 33.95 263.083"/><path fill="#5ED3BD" d="M1825.5 518.25l-33.95-263.083L1485.5 560"/><path fill="#A7EADD" d="M2005.5 528.25l-81.956-187.983L1825.5 518.25"/></svg></svg>